<svg width="110" height="110" viewBox="0 0 110 110" fill="none" xmlns="http://www.w3.org/2000/svg">
<rect width="110" height="110" rx="20" fill="white"/>
<path d="M60.3192 80.3879L31.7307 51.8405C29.6308 49.7374 28.4179 46.8258 28.4179 43.8343C28.4179 40.8428 29.6308 37.9312 31.7307 35.8281C33.8307 33.7251 36.738 32.5139 39.7251 32.5139C42.7122 32.5139 45.6195 33.7286 47.7195 35.8281L76.3045 64.4588L74.0451 66.725L45.4566 38.0943C43.9215 36.5569 41.9047 35.7483 39.7216 35.7483C37.542 35.7483 35.5217 36.5569 33.9901 38.0943C32.455 39.6317 31.6475 41.6514 31.6475 43.8378C31.6475 46.0207 32.455 48.0439 33.9901 49.5813L62.5786 78.2085L60.3192 80.3879Z" fill="#ED7861"/>
<path d="M64.8409 75.7793L36.3322 47.232C34.4748 45.3718 34.4748 42.2971 36.3322 40.3571C38.1896 38.497 41.2598 38.497 43.1969 40.3571L71.7854 68.9878L69.4428 71.2505L40.8543 42.6198C40.2098 41.9743 39.2395 41.9743 38.5915 42.6198C37.947 43.2688 37.947 44.237 38.5915 44.886L67.1003 73.5166L64.8409 75.7793Z" fill="#ED7861"/>
<path d="M84.3021 31.216C77.3577 24.2613 66.1337 24.2613 59.1893 31.216L55.7171 34.6135L52.3246 31.216C45.3802 24.2613 34.1562 24.2613 27.2083 31.216C20.2639 38.1706 20.2639 49.4112 27.2083 56.3693L55.7136 85L57.973 82.7373L29.4677 54.1066C23.8158 48.4464 23.8158 39.2256 29.4677 33.4821C35.1195 27.822 44.3267 27.822 50.0618 33.4821L78.6468 62.1128L79.7764 60.9815L80.9061 59.8501L84.2986 56.4526C91.1668 49.4147 91.1668 38.1706 84.3021 31.216ZM67.1005 46.097L70.493 42.6995C71.1375 42.0505 72.1875 42.0505 72.7523 42.6995C73.0746 43.0222 73.2375 43.4283 73.2375 43.8308C73.2375 44.2334 73.0746 44.6394 72.7523 44.9622L69.4395 48.3597L67.1005 46.097ZM71.7024 50.6258L75.0949 47.2283C75.982 46.3399 76.5503 45.1253 76.5503 43.8308C76.5503 42.5364 76.0651 41.3252 75.0949 40.4333C74.1246 39.5449 72.9949 38.9792 71.7024 38.9792C70.4098 38.9792 69.2004 39.4651 68.3099 40.4333L64.9174 43.8308L62.658 41.5647L66.0505 38.1672C69.2004 35.0126 74.2875 35.0126 77.4374 38.1672C78.9725 39.7045 79.7799 41.7243 79.7799 43.9107C79.7799 46.097 78.9725 48.1168 77.4374 49.6541L74.0449 53.0516L71.7024 50.6258ZM81.9596 54.1032L78.5671 57.5007L76.3077 55.238L79.7002 51.8405C81.8001 49.7374 83.0095 46.8258 83.0095 43.8343C83.0095 40.8428 81.7967 38.011 79.7002 35.8281C75.2577 31.3791 68.1505 31.3791 63.7115 35.8281L60.3189 39.2256L58.0561 36.9629L61.4486 33.5654C67.1005 27.9052 76.3077 27.9052 82.0393 33.5654C87.6114 39.1423 87.6114 48.443 81.9596 54.1032Z" fill="#ED7861"/>
</svg>
